# xmcd CD database file
#
# Track frame offsets:
#	150
#	16096
#	28427
#	42216
#	58940
#	70855
#	86894
#	101723
#	114264
#	127327
#	138160
#	148540
#	158470
#	170079
#	180811
#	192520
#
# Disc length: 2736 seconds
#
# Revision: 0
# Processed by: cddbd v1.5.2PL0 Copyright (c) Steve Scherf et al.
# Submitted via: CDex 1.51
#
DISCID=e00aae10
DTITLE=Eartha Kitt - You Can Call Me Miss Kitty [CD3)
DYEAR=2006
DGENRE=Jazz
TTITLE0=Mrs Patterson
TTITLE1=If I Was A Boy
TTITLE2=Be Good, Be Good, Be Good
TTITLE3=Tea In Chicago
TTITLE4=Hey Jacque
TTITLE5=Do You Remember
TTITLE6=The Day That The Circus Left Town
TTITLE7=The Heel
TTITLE8=Mambo De Paree
TTITLE9=I've Got That Lovin' Bug Itch
TTITLE10=My Heart's Delight
TTITLE11=Freddy
TTITLE12=Sweet And Gentle
TTITLE13=Nobody Taught me
TTITLE14=Nothin' For Christmas
TTITLE15=Je Cherche Un Homme
EXTD=YEAR: 2006
EXTT0=
EXTT1=
EXTT2=
EXTT3=
EXTT4=
EXTT5=
EXTT6=
EXTT7=
EXTT8=
EXTT9=
EXTT10=
EXTT11=
EXTT12=
EXTT13=
EXTT14=
EXTT15=
PLAYORDER=
